<svg version="1.2" xmlns="http://www.w3.org/2000/svg" viewBox="0 0 43 40" width="43" height="40">
	<title>fa-font-svg</title>
	<style>
		.s0 { fill: #c0301c } 
	</style>
	<path id="Layer" fill-rule="evenodd" class="s0" d="m0.1 38c2.4-0.8 5-0.3 6.1-3.1l6.1-16 7.3-18.9h3.3q0.1 0.3 0.3 0.6l5.3 12.5c1.9 4.6 3.7 9.2 5.6 13.8 1.2 2.7 2.1 5.5 3.4 8.2 0.2 0.4 0.5 1.2 0.9 1.5 0.9 0.6 3.2 0.8 4.5 1.3 0 0.5 0.1 0.9 0.1 1.4 0 0.3 0 0.5 0 0.7-3.3 0-6.6-0.4-9.9-0.4-3.3 0-6.7 0.3-10.1 0.4q0-1 0.1-2l3.4-0.8c0.7-0.1 2-0.3 2-1.3 0-0.9-3.3-8.6-3.7-9.7l-11.6-0.1c-0.7 1.5-3.3 8.4-3.3 9.4 0 2 3.8 2 5.3 2.3q0 0.7 0 1.5 0 0.3-0.1 0.7c-3 0-6-0.6-9-0.6-0.4 0-0.9 0.2-1.2 0.3-1.7 0.2-3.3 0.3-4.9 0.3zm14.2-15.1c2.6 0.1 5.2 0.1 7.7 0.1q0.8 0 1.5 0c-1.4-4-2.9-8-4.8-11.8z"/>
</svg>