<svg xmlns="http://www.w3.org/2000/svg" width="512" height="512" viewBox="0 0 512 512" version="1.1"><path d="M 91.868 9.889 C 90.547 10.928, 87.786 12.480, 85.733 13.338 C 83.680 14.196, 82 15.543, 82 16.332 C 82 17.121, 81.067 18.011, 79.926 18.309 C 78.785 18.607, 77.607 19.785, 77.309 20.926 C 77.011 22.067, 76.155 23, 75.407 23 C 74.659 23, 73.195 24.688, 72.154 26.750 C 71.112 28.813, 69.522 31.906, 68.620 33.624 C 67.118 36.483, 67.002 48.746, 67.240 178.793 C 67.500 320.839, 67.500 320.839, 69.619 323.170 C 70.784 324.451, 72.023 326.708, 72.371 328.183 C 72.720 329.659, 73.904 331.152, 75.002 331.501 C 76.101 331.849, 77 332.764, 77 333.532 C 77 334.301, 78.012 335.467, 79.250 336.124 C 80.487 336.780, 82.088 338.146, 82.807 339.159 C 83.525 340.171, 84.626 341, 85.253 341 C 85.880 341, 88.178 342.237, 90.360 343.750 C 94.328 346.500, 94.328 346.500, 198.645 346.781 C 299.018 347.051, 303 347.132, 303.954 348.915 C 304.500 349.934, 306.435 351.047, 308.254 351.388 C 310.074 351.729, 312.332 352.907, 313.272 354.004 C 314.211 355.102, 315.572 356, 316.296 356 C 317.019 356, 319.136 357.125, 321 358.500 C 322.864 359.875, 325.037 361, 325.830 361 C 326.622 361, 328.313 362.125, 329.588 363.500 C 330.862 364.875, 332.887 366, 334.088 366 C 335.288 366, 337.313 367.125, 338.588 368.500 C 339.862 369.875, 341.970 371, 343.272 371 C 344.574 371, 346.618 372.125, 347.813 373.500 C 349.009 374.875, 350.802 376, 351.799 376 C 352.796 376, 355.136 377.125, 357 378.500 C 358.864 379.875, 360.799 381, 361.300 381 C 361.801 381, 363.548 382.125, 365.182 383.500 C 366.816 384.875, 368.998 386, 370.031 386 C 371.064 386, 373.034 387.125, 374.409 388.500 C 375.784 389.875, 377.946 391, 379.214 391 C 380.482 391, 382.056 391.860, 382.712 392.910 C 383.368 393.961, 385.389 395.146, 387.202 395.544 C 389.016 395.943, 391.063 397.073, 391.751 398.055 C 392.439 399.038, 394.314 400.130, 395.918 400.482 C 397.521 400.834, 399.064 401.724, 399.346 402.460 C 399.629 403.196, 401.579 404.363, 403.680 405.053 C 405.781 405.742, 408.046 407.078, 408.714 408.021 C 409.382 408.964, 411.367 410.023, 413.125 410.375 C 414.883 410.727, 416.908 411.852, 417.625 412.875 C 418.342 413.898, 420.367 415.023, 422.125 415.375 C 423.883 415.727, 425.950 416.911, 426.718 418.007 C 427.485 419.103, 428.900 420, 429.862 420 C 430.824 420, 433.136 421.125, 435 422.500 C 436.864 423.875, 439.410 425, 440.659 425 C 441.908 425, 443.395 424.130, 443.965 423.066 C 444.534 422.002, 445 419.636, 445 417.809 C 445 415.982, 444.558 412.946, 444.018 411.064 C 443.478 409.181, 442.480 407.297, 441.800 406.876 C 441.095 406.441, 440.295 402.844, 439.941 398.518 C 439.508 393.223, 438.712 390.102, 437.312 388.208 C 435.904 386.303, 435.148 383.314, 434.782 378.199 C 434.394 372.772, 433.742 370.342, 432.234 368.703 C 430.695 367.029, 430.116 364.775, 429.825 359.323 C 429.561 354.356, 428.913 351.561, 427.721 350.245 C 426.775 349.199, 426 348.090, 426 347.782 C 426 347.473, 437.440 347.056, 451.423 346.855 C 475.754 346.505, 476.974 346.395, 479.823 344.289 C 481.460 343.079, 484.028 341.780, 485.530 341.403 C 487.032 341.026, 488.465 339.936, 488.715 338.981 C 488.965 338.025, 490.256 336.749, 491.585 336.143 C 492.913 335.538, 494 334.389, 494 333.589 C 494 332.789, 494.899 331.849, 495.998 331.501 C 497.096 331.152, 498.280 329.659, 498.629 328.183 C 498.977 326.708, 500.216 324.451, 501.381 323.170 C 503.500 320.839, 503.500 320.839, 503.760 178.234 C 504.020 35.629, 504.020 35.629, 501.510 31.836 C 500.130 29.750, 499 27.369, 499 26.544 C 499 25.720, 497.922 24.340, 496.604 23.476 C 495.287 22.613, 493.979 21.028, 493.698 19.953 C 493.417 18.879, 492.522 18, 491.709 18 C 490.895 18, 489.493 16.875, 488.592 15.500 C 487.691 14.125, 486.152 13, 485.171 13 C 484.191 13, 481.864 11.875, 480 10.500 C 476.611 8, 476.611 8, 285.441 8 C 99.523 8, 94.204 8.052, 91.868 9.889 M 161.139 152.033 C 159.841 153.115, 157.745 154, 156.481 154 C 155.119 154, 152.342 155.790, 149.658 158.399 C 146.791 161.184, 144.738 164.259, 144.059 166.782 C 143.468 168.974, 142.314 171.325, 141.493 172.006 C 140.639 172.715, 140 174.904, 140 177.122 C 140 179.667, 140.688 181.688, 142 183 C 143.100 184.100, 144 186.144, 144 187.543 C 144 189.180, 145.616 191.813, 148.540 194.939 C 151.579 198.189, 154.189 200.001, 156.438 200.422 C 158.286 200.769, 160.926 201.941, 162.306 203.026 C 163.686 204.112, 165.733 205, 166.855 205 C 167.976 205, 171.010 203.875, 173.596 202.500 C 176.182 201.125, 179.037 200, 179.941 200 C 180.844 200, 183.404 198.088, 185.629 195.750 C 187.902 193.362, 190.185 189.690, 190.841 187.369 C 191.484 185.096, 192.682 182.679, 193.505 181.996 C 194.342 181.301, 195 179.116, 195 177.033 C 195 174.645, 194.318 172.693, 193.099 171.590 C 192.053 170.643, 190.907 168.320, 190.552 166.427 C 190.140 164.228, 188.398 161.535, 185.729 158.970 C 183.432 156.763, 179.951 154.525, 177.995 153.999 C 176.039 153.472, 173.552 152.371, 172.469 151.552 C 171.386 150.733, 168.925 150.064, 167 150.065 C 164.988 150.066, 162.496 150.903, 161.139 152.033 M 280.245 151.501 C 279.555 152.284, 277.169 153.416, 274.943 154.015 C 272.467 154.682, 269.366 156.681, 266.956 159.165 C 264.790 161.397, 262.560 164.921, 262.001 166.995 C 261.443 169.070, 260.314 171.325, 259.493 172.006 C 258.596 172.751, 258 174.948, 258 177.515 C 258 180.320, 258.497 181.977, 259.448 182.342 C 260.244 182.647, 261.405 184.833, 262.029 187.199 C 262.734 189.871, 264.726 193.110, 267.290 195.750 C 269.559 198.088, 272.156 200, 273.059 200 C 273.963 200, 276.818 201.125, 279.404 202.500 C 281.990 203.875, 284.733 205, 285.500 205 C 286.267 205, 289.010 203.875, 291.596 202.500 C 294.182 201.125, 297.069 200, 298.012 200 C 298.955 200, 301.813 197.769, 304.363 195.043 C 307.223 191.986, 309 189.163, 309 187.678 C 309 186.353, 309.900 184.126, 311 182.727 C 312.127 181.294, 313 178.670, 313 176.715 C 313 174.806, 312.328 172.687, 311.507 172.006 C 310.686 171.325, 309.532 168.974, 308.941 166.782 C 308.262 164.259, 306.209 161.184, 303.342 158.399 C 300.853 155.979, 297.979 154, 296.955 154 C 295.932 154, 293.948 153.478, 292.547 152.839 C 291.146 152.201, 290 151.301, 290 150.839 C 290 150.378, 288.087 150.017, 285.750 150.038 C 283.370 150.059, 280.948 150.703, 280.245 151.501 M 398.531 151.552 C 397.448 152.371, 394.908 153.486, 392.886 154.031 C 390.780 154.598, 387.493 156.790, 385.187 159.165 C 382.909 161.513, 380.903 164.701, 380.563 166.518 C 380.232 168.282, 379.070 170.532, 377.980 171.518 C 376.682 172.693, 376 174.592, 376 177.033 C 376 179.116, 376.658 181.301, 377.495 181.996 C 378.318 182.679, 379.524 185.096, 380.176 187.369 C 380.842 189.693, 383.141 193.356, 385.430 195.742 C 387.669 198.076, 390.220 199.988, 391.101 199.992 C 391.982 199.997, 394.818 201.125, 397.404 202.500 C 399.990 203.875, 403.152 205, 404.430 205 C 405.709 205, 407.314 204.327, 407.996 203.505 C 408.679 202.682, 411.096 201.484, 413.369 200.841 C 415.701 200.182, 419.371 197.894, 421.797 195.587 C 424.684 192.840, 426.442 190.116, 427.158 187.280 C 427.743 184.959, 428.847 182.542, 429.611 181.908 C 430.375 181.274, 431 179.194, 431 177.285 C 431 175.330, 430.127 172.706, 429 171.273 C 427.900 169.874, 427 167.617, 427 166.257 C 427 164.625, 425.328 162.121, 422.082 158.892 C 418.882 155.708, 416.310 154, 414.717 154 C 413.371 154, 411.126 153.100, 409.727 152 C 408.305 150.881, 405.712 150.014, 403.842 150.032 C 402.004 150.049, 399.614 150.733, 398.531 151.552 M 36 175.724 C 34.625 175.972, 32.600 177.003, 31.500 178.014 C 30.400 179.025, 28.204 180.174, 26.619 180.567 C 25.035 180.960, 23.531 182.077, 23.277 183.049 C 23.023 184.020, 21.923 185.048, 20.833 185.333 C 19.743 185.618, 18.611 186.770, 18.318 187.893 C 18.024 189.015, 16.997 190.184, 16.035 190.489 C 15.073 190.794, 13.541 192.722, 12.630 194.772 C 11.719 196.822, 10.308 199.625, 9.494 201 C 8.209 203.169, 8.046 216.486, 8.257 301.670 C 8.500 399.839, 8.500 399.839, 10.750 402.234 C 11.988 403.551, 13 405.377, 13 406.291 C 13 407.206, 14.125 408.691, 15.500 409.592 C 16.875 410.493, 18 411.895, 18 412.709 C 18 413.522, 18.879 414.417, 19.953 414.698 C 21.028 414.979, 22.613 416.287, 23.476 417.604 C 24.340 418.922, 25.650 420, 26.388 420 C 27.126 420, 29.016 421.012, 30.588 422.250 C 33.348 424.423, 34.359 424.517, 59.973 425 C 86.500 425.500, 86.500 425.500, 86.795 432.809 C 87.043 438.942, 86.732 440.697, 84.867 443.715 C 83.106 446.565, 82.522 449.408, 82.058 457.406 C 81.625 464.869, 80.987 468.221, 79.610 470.268 C 78.272 472.255, 77.603 475.562, 77.236 481.999 C 76.871 488.391, 77.086 491.399, 77.985 492.482 C 78.678 493.317, 80.505 494, 82.046 494 C 83.586 494, 86.184 492.875, 87.818 491.500 C 89.452 490.125, 91.702 489, 92.818 489 C 93.934 489, 96.184 487.875, 97.818 486.500 C 99.452 485.125, 101.702 484, 102.818 484 C 103.934 484, 106.184 482.875, 107.818 481.500 C 109.452 480.125, 111.702 479, 112.818 479 C 113.934 479, 116.184 477.875, 117.818 476.500 C 119.452 475.125, 121.736 474, 122.894 474 C 124.052 474, 125.876 473.124, 126.947 472.053 C 128.018 470.982, 130.741 469.608, 132.999 469 C 135.256 468.392, 137.335 467.289, 137.620 466.549 C 137.904 465.809, 140.149 464.696, 142.609 464.077 C 145.069 463.457, 147.320 462.331, 147.610 461.574 C 147.901 460.816, 149.707 459.902, 151.625 459.543 C 153.543 459.183, 155.941 458.059, 156.954 457.046 C 157.967 456.033, 160.212 454.893, 161.942 454.513 C 163.673 454.133, 165.856 453.044, 166.794 452.092 C 167.732 451.141, 170.366 449.827, 172.647 449.172 C 174.927 448.518, 177.050 447.311, 177.365 446.491 C 177.680 445.671, 179.042 445, 180.392 445 C 181.742 445, 184.184 443.875, 185.818 442.500 C 187.452 441.125, 189.702 440, 190.818 440 C 191.934 440, 194.184 438.875, 195.818 437.500 C 197.452 436.125, 199.702 435, 200.818 435 C 201.934 435, 204.184 433.875, 205.818 432.500 C 207.452 431.125, 209.649 430, 210.700 430 C 211.751 430, 214.136 428.875, 216 427.500 C 219.389 425, 219.389 425, 269.500 425 C 319.611 425, 319.611 425, 323 422.500 C 324.864 421.125, 327.011 420, 327.773 420 C 328.534 420, 330.922 418.163, 333.078 415.918 C 335.235 413.674, 337 411.476, 337 411.035 C 337 410.594, 337.836 410.015, 338.859 409.747 C 339.881 409.480, 341.026 408.032, 341.403 406.530 C 341.780 405.028, 343.026 402.531, 344.173 400.980 C 345.633 399.005, 346.063 397.389, 345.610 395.580 C 345.253 394.161, 344.377 393, 343.661 393 C 342.946 393, 341.393 391.887, 340.210 390.526 C 339.027 389.166, 336.883 387.758, 335.446 387.397 C 334.008 387.036, 331.794 385.703, 330.526 384.435 C 328.997 382.906, 327.510 382.315, 326.110 382.681 C 324.950 382.985, 324 383.631, 324 384.117 C 324 384.602, 323.134 385.866, 322.076 386.924 C 321.017 387.983, 319.667 389.753, 319.076 390.859 C 318.484 391.964, 318 393.798, 318 394.934 C 318 396.355, 317.355 397, 315.934 397 C 314.798 397, 312.895 397.521, 311.705 398.158 C 310.515 398.795, 308.937 399.920, 308.199 400.658 C 307.111 401.747, 296.964 402, 254.476 402 C 216.854 402, 201.376 402.327, 199.547 403.161 C 198.146 403.799, 197 404.681, 197 405.122 C 197 405.562, 195.271 406.389, 193.157 406.958 C 191.044 407.527, 188.275 408.894, 187.004 409.996 C 185.734 411.098, 183.950 412, 183.041 412 C 182.132 412, 179.864 413.125, 178 414.500 C 176.136 415.875, 173.886 417, 173 417 C 172.114 417, 169.864 418.125, 168 419.500 C 166.136 420.875, 163.886 422, 163 422 C 162.114 422, 159.864 423.125, 158 424.500 C 156.136 425.875, 153.860 427, 152.941 427 C 152.022 427, 150.197 427.835, 148.885 428.855 C 147.573 429.875, 144.848 431.248, 142.830 431.906 C 140.811 432.564, 138.643 433.725, 138.011 434.487 C 137.379 435.248, 135.564 436.156, 133.978 436.505 C 132.392 436.853, 130.060 437.939, 128.797 438.917 C 127.534 439.895, 125.251 441, 123.725 441.373 C 122.198 441.746, 120.061 442.939, 118.975 444.025 C 117.889 445.111, 116.550 446, 116 446 C 115.450 446, 115 443.667, 115 440.814 C 115 436.934, 115.525 435.070, 117.086 433.408 C 118.563 431.836, 119.340 429.334, 119.745 424.844 C 120.100 420.917, 121.048 417.511, 122.233 415.904 C 123.287 414.475, 124.399 411.442, 124.705 409.163 C 125.056 406.547, 124.799 404.463, 124.008 403.510 C 122.931 402.212, 117.450 402, 85.033 402 C 48.704 402, 47.244 401.927, 45.518 400.020 C 44.532 398.930, 42.216 397.756, 40.372 397.410 C 37.532 396.877, 36.862 396.202, 36.002 393.007 C 35.443 390.931, 34.314 388.675, 33.493 387.994 C 32.190 386.913, 32 375.709, 32 299.985 C 32 229.353, 32.244 213.120, 33.311 212.711 C 34.031 212.434, 35.164 210.395, 35.828 208.180 C 36.807 204.913, 37.607 204.025, 40.062 203.486 C 41.726 203.121, 43.856 202.010, 44.794 201.019 C 45.732 200.027, 47.400 199.049, 48.500 198.846 C 50.327 198.509, 50.525 197.568, 50.788 188.002 C 51.034 179.019, 50.829 177.348, 49.346 176.264 C 48.396 175.569, 45.566 175.061, 43.059 175.136 C 40.551 175.211, 37.375 175.476, 36 175.724" stroke="none" fill="#fffcfc" fill-rule="evenodd"/><path d="" stroke="none" fill="#fcfcfc" fill-rule="evenodd"/></svg>