<svg xmlns="http://www.w3.org/2000/svg" width="512" height="512" xml:space="preserve"><path d="M461.5 222h-411c-11.046 0-20 8.954-20 20l40 207c0 11.046 8.954 20 20 20h331c11.046 0 20-8.954 20-20l40-207c0-11.046-8.954-20-20-20zM138 403.5c0 5.799-4.701 10.5-10.5 10.5s-10.5-4.701-10.5-10.5v-117c0-5.799 4.701-10.5 10.5-10.5h.001c5.799 0 10.5 4.701 10.5 10.5v117zm66 0c0 5.799-4.701 10.5-10.5 10.5s-10.5-4.701-10.5-10.5v-117c0-5.799 4.701-10.5 10.5-10.5h.001c5.798 0 10.5 4.701 10.5 10.5v117zm62 0c0 5.799-4.701 10.5-10.5 10.5s-10.5-4.701-10.5-10.5v-117c0-5.799 4.701-10.5 10.5-10.5h.001c5.798 0 10.5 4.701 10.5 10.5v117zm65 0c0 5.799-4.701 10.5-10.5 10.5s-10.5-4.701-10.5-10.5v-117c0-5.799 4.701-10.5 10.5-10.5s10.5 4.701 10.5 10.5v117zm65 0c0 5.799-4.701 10.5-10.5 10.5s-10.5-4.701-10.5-10.5v-117c0-5.799 4.701-10.5 10.5-10.5s10.5 4.701 10.5 10.5v117z"/><path fill="#020201" d="M416.595 121.376c-3.04-25.57-25.181-47.13-50.66-50.02-7.088-.521-30.334-.401-46.035-.348C318.899 60.897 310.373 53 300 53h-87c-10.387 0-18.92 7.919-19.901 18.049-19.155-.169-49.697-.793-60.374 3.647-19.07 7.12-34.01 24.74-37.04 44.99-4.64 29.089-9.399 58.169-13.91 87.291 6.721.029 13.44.159 20.16-.021 4.53-27.64 8.83-55.31 13.34-82.95 1.83-16.4 15.96-30.24 32.12-32.61 6.937-.618 30.914-.396 46.275-.343C195.911 99.648 203.703 106 213 106h87c9.31 0 17.11-6.37 19.34-14.982 14.012.012 34.461.038 39.715-.012 18.1-.27 35.21 14.37 37.569 32.34 4.561 27.86 8.82 55.77 13.471 83.61 6.7.21 13.42-.011 20.13.01-4.42-28.55-9.111-57.05-13.63-85.59z"/></svg>