<svg version="1.2" xmlns="http://www.w3.org/2000/svg" width="53" height="40"><path fill-rule="evenodd" d="M16.6 32.7c.4-.4.4-.9 0-1.3L5.3 20 16.6 8.6c.4-.4.4-.9 0-1.3l-1.4-1.5c-.4-.4-1-.4-1.4 0L.4 19.3c-.4.4-.4 1 0 1.4l13.4 13.5c.4.4 1 .4 1.4 0zm17-31c.2-.4-.1-1-.6-1.1L31.2.1a.8.8 0 0 0-1.1.6L19.3 38.2c-.1.4.1 1 .6 1.1l1.8.5c.5.1 1-.1 1.1-.6zm19 18.8c.4-.3.4-.9 0-1.3L39.2 5.7c-.4-.4-1-.4-1.4 0l-1.4 1.4c-.4.4-.4 1 0 1.4l11.3 11.4-11.3 11.4c-.4.3-.4.9 0 1.3l1.4 1.4c.4.4 1 .4 1.4 0z" style="fill:#c0301c"/></svg>