<svg version="1.2" xmlns="http://www.w3.org/2000/svg" width="43" height="40"><path fill-rule="evenodd" d="M.1 38c2.4-.8 5-.3 6.1-3.1l6.1-16L19.6 0h3.3q.1.3.3.6l5.3 12.5c1.9 4.6 3.7 9.2 5.6 13.8 1.2 2.7 2.1 5.5 3.4 8.2.2.4.5 1.2.9 1.5.9.6 3.2.8 4.5 1.3 0 .5.1.9.1 1.4v.7c-3.3 0-6.6-.4-9.9-.4-3.3 0-6.7.3-10.1.4q0-1 .1-2l3.4-.8c.7-.1 2-.3 2-1.3 0-.9-3.3-8.6-3.7-9.7l-11.6-.1c-.7 1.5-3.3 8.4-3.3 9.4 0 2 3.8 2 5.3 2.3v1.5q0 .3-.1.7c-3 0-6-.6-9-.6-.4 0-.9.2-1.2.3-1.7.2-3.3.3-4.9.3zm14.2-15.1c2.6.1 5.2.1 7.7.1h1.5c-1.4-4-2.9-8-4.8-11.8z" style="fill:#c0301c"/></svg>