<svg version="1.2" xmlns="http://www.w3.org/2000/svg" width="49" height="49"><path fill-rule="evenodd" d="M25 .9C11.7.9 1 11.6 1 24.9c0 13.2 10.7 24 24 24 13.2 0 24-10.8 24-24 0-13.3-10.8-24-24-24zm0 3.4c3.5 0 6.8.9 9.7 2.4l-5.2 5.2c-1.5-.5-2.9-.8-4.5-.8q-2.3.1-4.5.8l-5.2-5.2c2.9-1.5 6.2-2.4 9.7-2.4zM6.8 34.5c-1.5-2.9-2.4-6.2-2.4-9.6 0-3.5.9-6.8 2.4-9.7l5.2 5.2c-.4 1.4-.7 2.9-.7 4.5q0 2.3.7 4.4zM25 45.4c-3.5 0-6.8-.9-9.7-2.4l5.2-5.2q2.2.8 4.5.8c1.6 0 3-.3 4.5-.8l5.2 5.2c-2.9 1.5-6.2 2.4-9.7 2.4zm0-10.3c-5.7 0-10.3-4.6-10.3-10.2 0-5.7 4.6-10.3 10.3-10.3 5.7 0 10.3 4.6 10.3 10.3 0 5.6-4.6 10.2-10.3 10.2zm13-5.8q.7-2.1.7-4.4 0-2.4-.7-4.5l5.1-5.2a20 20 0 0 1 2.5 9.7c0 3.4-.9 6.7-2.5 9.6z" style="fill:#c0301c"/></svg>