<svg xmlns="http://www.w3.org/2000/svg" width="512" height="512"><path d="M91.868 9.889c-1.321 1.039-4.082 2.591-6.135 3.449C83.68 14.196 82 15.543 82 16.332c0 .789-.933 1.679-2.074 1.977-1.141.298-2.319 1.476-2.617 2.617C77.011 22.067 76.155 23 75.407 23s-2.212 1.688-3.253 3.75a598.434 598.434 0 0 1-3.534 6.874c-1.502 2.859-1.618 15.122-1.38 145.169.26 142.046.26 142.046 2.379 144.377 1.165 1.281 2.404 3.538 2.752 5.013.349 1.476 1.533 2.969 2.631 3.318 1.099.348 1.998 1.263 1.998 2.031 0 .769 1.012 1.935 2.25 2.592 1.237.656 2.838 2.022 3.557 3.035.718 1.012 1.819 1.841 2.446 1.841.627 0 2.925 1.237 5.107 2.75 3.968 2.75 3.968 2.75 108.285 3.031 100.373.27 104.355.351 105.309 2.134.546 1.019 2.481 2.132 4.3 2.473 1.82.341 4.078 1.519 5.018 2.616.939 1.098 2.3 1.996 3.024 1.996.723 0 2.84 1.125 4.704 2.5 1.864 1.375 4.037 2.5 4.83 2.5.792 0 2.483 1.125 3.758 2.5 1.274 1.375 3.299 2.5 4.5 2.5 1.2 0 3.225 1.125 4.5 2.5 1.274 1.375 3.382 2.5 4.684 2.5s3.346 1.125 4.541 2.5c1.196 1.375 2.989 2.5 3.986 2.5.997 0 3.337 1.125 5.201 2.5 1.864 1.375 3.799 2.5 4.3 2.5.501 0 2.248 1.125 3.882 2.5s3.816 2.5 4.849 2.5c1.033 0 3.003 1.125 4.378 2.5s3.537 2.5 4.805 2.5c1.268 0 2.842.86 3.498 1.91.656 1.051 2.677 2.236 4.49 2.634 1.814.399 3.861 1.529 4.549 2.511.688.983 2.563 2.075 4.167 2.427 1.603.352 3.146 1.242 3.428 1.978.283.736 2.233 1.903 4.334 2.593 2.101.689 4.366 2.025 5.034 2.968.668.943 2.653 2.002 4.411 2.354 1.758.352 3.783 1.477 4.5 2.5.717 1.023 2.742 2.148 4.5 2.5 1.758.352 3.825 1.536 4.593 2.632.767 1.096 2.182 1.993 3.144 1.993.962 0 3.274 1.125 5.138 2.5 1.864 1.375 4.41 2.5 5.659 2.5 1.249 0 2.736-.87 3.306-1.934.569-1.064 1.035-3.43 1.035-5.257 0-1.827-.442-4.863-.982-6.745-.54-1.883-1.538-3.767-2.218-4.188-.705-.435-1.505-4.032-1.859-8.358-.433-5.295-1.229-8.416-2.629-10.31-1.408-1.905-2.164-4.894-2.53-10.009-.388-5.427-1.04-7.857-2.548-9.496-1.539-1.674-2.118-3.928-2.409-9.38-.264-4.967-.912-7.762-2.104-9.078-.946-1.046-1.721-2.155-1.721-2.463 0-.309 11.44-.726 25.423-.927 24.331-.35 25.551-.46 28.4-2.566 1.637-1.21 4.205-2.509 5.707-2.886 1.502-.377 2.935-1.467 3.185-2.422.25-.956 1.541-2.232 2.87-2.838 1.328-.605 2.415-1.754 2.415-2.554 0-.8.899-1.74 1.998-2.088 1.098-.349 2.282-1.842 2.631-3.318.348-1.475 1.587-3.732 2.752-5.013 2.119-2.331 2.119-2.331 2.379-144.936.26-142.605.26-142.605-2.25-146.398-1.38-2.086-2.51-4.467-2.51-5.292 0-.824-1.078-2.204-2.396-3.068-1.317-.863-2.625-2.448-2.906-3.523-.281-1.074-1.176-1.953-1.989-1.953-.814 0-2.216-1.125-3.117-2.5-.901-1.375-2.44-2.5-3.421-2.5-.98 0-3.307-1.125-5.171-2.5C476.611 8 476.611 8 285.441 8 99.523 8 94.204 8.052 91.868 9.889m69.271 142.144c-1.298 1.082-3.394 1.967-4.658 1.967-1.362 0-4.139 1.79-6.823 4.399-2.867 2.785-4.92 5.86-5.599 8.383-.591 2.192-1.745 4.543-2.566 5.224-.854.709-1.493 2.898-1.493 5.116 0 2.545.688 4.566 2 5.878 1.1 1.1 2 3.144 2 4.543 0 1.637 1.616 4.27 4.54 7.396 3.039 3.25 5.649 5.062 7.898 5.483 1.848.347 4.488 1.519 5.868 2.604 1.38 1.086 3.427 1.974 4.549 1.974 1.121 0 4.155-1.125 6.741-2.5 2.586-1.375 5.441-2.5 6.345-2.5.903 0 3.463-1.912 5.688-4.25 2.273-2.388 4.556-6.06 5.212-8.381.643-2.273 1.841-4.69 2.664-5.373.837-.695 1.495-2.88 1.495-4.963 0-2.388-.682-4.34-1.901-5.443-1.046-.947-2.192-3.27-2.547-5.163-.412-2.199-2.154-4.892-4.823-7.457-2.297-2.207-5.778-4.445-7.734-4.971-1.956-.527-4.443-1.628-5.526-2.447-1.083-.819-3.544-1.488-5.469-1.487-2.012.001-4.504.838-5.861 1.968m119.106-.532c-.69.783-3.076 1.915-5.302 2.514-2.476.667-5.577 2.666-7.987 5.15-2.166 2.232-4.396 5.756-4.955 7.83-.558 2.075-1.687 4.33-2.508 5.011-.897.745-1.493 2.942-1.493 5.509 0 2.805.497 4.462 1.448 4.827.796.305 1.957 2.491 2.581 4.857.705 2.672 2.697 5.911 5.261 8.551 2.269 2.338 4.866 4.25 5.769 4.25.904 0 3.759 1.125 6.345 2.5s5.329 2.5 6.096 2.5c.767 0 3.51-1.125 6.096-2.5 2.586-1.375 5.473-2.5 6.416-2.5.943 0 3.801-2.231 6.351-4.957 2.86-3.057 4.637-5.88 4.637-7.365 0-1.325.9-3.552 2-4.951 1.127-1.433 2-4.057 2-6.012 0-1.909-.672-4.028-1.493-4.709-.821-.681-1.975-3.032-2.566-5.224-.679-2.523-2.732-5.598-5.599-8.383-2.489-2.42-5.363-4.399-6.387-4.399-1.023 0-3.007-.522-4.408-1.161-1.401-.638-2.547-1.538-2.547-2 0-.461-1.913-.822-4.25-.801-2.38.021-4.802.665-5.505 1.463m118.286.051c-1.083.819-3.623 1.934-5.645 2.479-2.106.567-5.393 2.759-7.699 5.134-2.278 2.348-4.284 5.536-4.624 7.353-.331 1.764-1.493 4.014-2.583 5-1.298 1.175-1.98 3.074-1.98 5.515 0 2.083.658 4.268 1.495 4.963.823.683 2.029 3.1 2.681 5.373.666 2.324 2.965 5.987 5.254 8.373 2.239 2.334 4.79 4.246 5.671 4.25.881.005 3.717 1.133 6.303 2.508s5.748 2.5 7.026 2.5c1.279 0 2.884-.673 3.566-1.495.683-.823 3.1-2.021 5.373-2.664 2.332-.659 6.002-2.947 8.428-5.254 2.887-2.747 4.645-5.471 5.361-8.307.585-2.321 1.689-4.738 2.453-5.372.764-.634 1.389-2.714 1.389-4.623 0-1.955-.873-4.579-2-6.012-1.1-1.399-2-3.656-2-5.016 0-1.632-1.672-4.136-4.918-7.365-3.2-3.184-5.772-4.892-7.365-4.892-1.346 0-3.591-.9-4.99-2-1.422-1.119-4.015-1.986-5.885-1.968-1.838.017-4.228.701-5.311 1.52M36 175.724c-1.375.248-3.4 1.279-4.5 2.29-1.1 1.011-3.296 2.16-4.881 2.553-1.584.393-3.088 1.51-3.342 2.482-.254.971-1.354 1.999-2.444 2.284-1.09.285-2.222 1.437-2.515 2.56-.294 1.122-1.321 2.291-2.283 2.596-.962.305-2.494 2.233-3.405 4.283-.911 2.05-2.322 4.853-3.136 6.228-1.285 2.169-1.448 15.486-1.237 100.67.243 98.169.243 98.169 2.493 100.564 1.238 1.317 2.25 3.143 2.25 4.057 0 .915 1.125 2.4 2.5 3.301 1.375.901 2.5 2.303 2.5 3.117 0 .813.879 1.708 1.953 1.989 1.075.281 2.66 1.589 3.523 2.906.864 1.318 2.174 2.396 2.912 2.396s2.628 1.012 4.2 2.25c2.76 2.173 3.771 2.267 29.385 2.75 26.527.5 26.527.5 26.822 7.809.248 6.133-.063 7.888-1.928 10.906-1.761 2.85-2.345 5.693-2.809 13.691-.433 7.463-1.071 10.815-2.448 12.862-1.338 1.987-2.007 5.294-2.374 11.731-.365 6.392-.15 9.4.749 10.483.693.835 2.52 1.518 4.061 1.518 1.54 0 4.138-1.125 5.772-2.5 1.634-1.375 3.884-2.5 5-2.5s3.366-1.125 5-2.5 3.884-2.5 5-2.5 3.366-1.125 5-2.5 3.884-2.5 5-2.5 3.366-1.125 5-2.5 3.918-2.5 5.076-2.5c1.158 0 2.982-.876 4.053-1.947 1.071-1.071 3.794-2.445 6.052-3.053 2.257-.608 4.336-1.711 4.621-2.451.284-.74 2.529-1.853 4.989-2.472 2.46-.62 4.711-1.746 5.001-2.503.291-.758 2.097-1.672 4.015-2.031 1.918-.36 4.316-1.484 5.329-2.497s3.258-2.153 4.988-2.533c1.731-.38 3.914-1.469 4.852-2.421.938-.951 3.572-2.265 5.853-2.92 2.28-.654 4.403-1.861 4.718-2.681.315-.82 1.677-1.491 3.027-1.491s3.792-1.125 5.426-2.5c1.634-1.375 3.884-2.5 5-2.5s3.366-1.125 5-2.5 3.884-2.5 5-2.5 3.366-1.125 5-2.5 3.831-2.5 4.882-2.5c1.051 0 3.436-1.125 5.3-2.5 3.389-2.5 3.389-2.5 53.5-2.5s50.111 0 53.5-2.5c1.864-1.375 4.011-2.5 4.773-2.5.761 0 3.149-1.837 5.305-4.082 2.157-2.244 3.922-4.442 3.922-4.883 0-.441.836-1.02 1.859-1.288 1.022-.267 2.167-1.715 2.544-3.217.377-1.502 1.623-3.999 2.77-5.55 1.46-1.975 1.89-3.591 1.437-5.4-.357-1.419-1.233-2.58-1.949-2.58-.715 0-2.268-1.113-3.451-2.474-1.183-1.36-3.327-2.768-4.764-3.129-1.438-.361-3.652-1.694-4.92-2.962-1.529-1.529-3.016-2.12-4.416-1.754-1.16.304-2.11.95-2.11 1.436 0 .485-.866 1.749-1.924 2.807-1.059 1.059-2.409 2.829-3 3.935-.592 1.105-1.076 2.939-1.076 4.075 0 1.421-.645 2.066-2.066 2.066-1.136 0-3.039.521-4.229 1.158-1.19.637-2.768 1.762-3.506 2.5-1.088 1.089-11.235 1.342-53.723 1.342-37.622 0-53.1.327-54.929 1.161-1.401.638-2.547 1.52-2.547 1.961 0 .44-1.729 1.267-3.843 1.836-2.113.569-4.882 1.936-6.153 3.038-1.27 1.102-3.054 2.004-3.963 2.004-.909 0-3.177 1.125-5.041 2.5-1.864 1.375-4.114 2.5-5 2.5-.886 0-3.136 1.125-5 2.5-1.864 1.375-4.114 2.5-5 2.5-.886 0-3.136 1.125-5 2.5-1.864 1.375-4.14 2.5-5.059 2.5-.919 0-2.744.835-4.056 1.855-1.312 1.02-4.037 2.393-6.055 3.051-2.019.658-4.187 1.819-4.819 2.581-.632.761-2.447 1.669-4.033 2.018-1.586.348-3.918 1.434-5.181 2.412s-3.546 2.083-5.072 2.456c-1.527.373-3.664 1.566-4.75 2.652C117.889 445.111 116.55 446 116 446c-.55 0-1-2.333-1-5.186 0-3.88.525-5.744 2.086-7.406 1.477-1.572 2.254-4.074 2.659-8.564.355-3.927 1.303-7.333 2.488-8.94 1.054-1.429 2.166-4.462 2.472-6.741.351-2.616.094-4.7-.697-5.653-1.077-1.298-6.558-1.51-38.975-1.51-36.329 0-37.789-.073-39.515-1.98-.986-1.09-3.302-2.264-5.146-2.61-2.84-.533-3.51-1.208-4.37-4.403-.559-2.076-1.688-4.332-2.509-5.013C32.19 386.913 32 375.709 32 299.985c0-70.632.244-86.865 1.311-87.274.72-.277 1.853-2.316 2.517-4.531.979-3.267 1.779-4.155 4.234-4.694 1.664-.365 3.794-1.476 4.732-2.467.938-.992 2.606-1.97 3.706-2.173 1.827-.337 2.025-1.278 2.288-10.844.246-8.983.041-10.654-1.442-11.738-.95-.695-3.78-1.203-6.287-1.128-2.508.075-5.684.34-7.059.588" fill="#fffcfc" fill-rule="evenodd"/></svg>